PERFORMER "Sander van Doorn"
TITLE "Essential Mix (2009-06-20) [TMB]"
FILE "Essential Mix_Sander Van Doorn_2009_06_20.mp3" MP3
  TRACK 01 AUDIO
    PERFORMER "Essential Mix"
    TITLE "Intro"
    INDEX 01 00:00:00
  TRACK 02 AUDIO
    PERFORMER "BoomCardona & Smokers Area"
    TITLE "The Game (Milton Channels Remix) (Intro Edit)"
    INDEX 01 02:40:63
  TRACK 03 AUDIO
    PERFORMER "Spoon, Harris & Obernik"
    TITLE "Baditude (Mark Mendes Remix)"
    INDEX 01 03:26:00
  TRACK 04 AUDIO
    PERFORMER "Olav Basoski & DJ Erick E"
    TITLE "Don't Turn Your Back (Sander van Doorn Remix)"
    INDEX 01 07:45:39
  TRACK 05 AUDIO
    PERFORMER "Jesse Garcia"
    TITLE "Let Me Hear You Go"
    INDEX 01 11:01:05
  TRACK 06 AUDIO
    PERFORMER "East & Young"
    TITLE "Reveal"
    INDEX 01 14:52:29
  TRACK 07 AUDIO
    PERFORMER "Patrick Hagenaar feat. Jon Junior"
    TITLE "We Feel The Same (H-Unit Dub vs. Michael Woods Club Mix) (SvD Edit)"
    INDEX 01 19:15:50
  TRACK 08 AUDIO
    PERFORMER "Riktam & Bansi"
    TITLE "Bass Master Zorro (Jerome Isma-Ae Remix)"
    INDEX 01 21:14:59
  TRACK 09 AUDIO
    PERFORMER "B-Cult"
    TITLE "Uni Tunes"
    INDEX 01 24:12:67
  TRACK 10 AUDIO
    PERFORMER "Doves"
    TITLE "Jetstream (Sasha Remix) (SVD Edit)"
    INDEX 01 26:56:11
  TRACK 11 AUDIO
    PERFORMER "Dakota"
    TITLE "Chinook"
    INDEX 01 30:42:38
  TRACK 12 AUDIO
    PERFORMER "Alex O'Rion"
    TITLE "Like A Box Of Fluffy Ducks"
    INDEX 01 36:53:29
  TRACK 13 AUDIO
    PERFORMER "Purple Haze"
    TITLE "Bliksem"
    INDEX 01 41:02:47
  TRACK 14 AUDIO
    PERFORMER "Patrick Plaice"
    TITLE "Falling Out"
    INDEX 01 45:29:71
  TRACK 15 AUDIO
    PERFORMER "Randy Katana"
    TITLE "You & I"
    INDEX 01 49:26:06
  TRACK 16 AUDIO
    PERFORMER "The Prodigy"
    TITLE "Omen (Simmons & Machiavelli Main Bootleg)"
    INDEX 01 52:21:66
  TRACK 17 AUDIO
    PERFORMER "Smart Apes feat. Kate Miles"
    TITLE "Smile"
    INDEX 01 57:29:06
  TRACK 18 AUDIO
    PERFORMER "The Killers"
    TITLE "Spaceman (Sander van Doorn Remix Part 2)"
    INDEX 01 62:15:02
  TRACK 19 AUDIO
    PERFORMER "Radion 6"
    TITLE "Starlight"
    INDEX 01 67:14:49
  TRACK 20 AUDIO
    PERFORMER "Marco V"
    TITLE "Digital Identity"
    INDEX 01 69:44:35
  TRACK 21 AUDIO
    PERFORMER "Robert Gitelman"
    TITLE "Rockless (Eddie Sender Remix)"
    INDEX 01 75:16:16
  TRACK 22 AUDIO
    PERFORMER "Feliz Pascal"
    TITLE "Smack My 2 Core Up"
    INDEX 01 80:30:10
  TRACK 23 AUDIO
    PERFORMER "Marcel Woods"
    TITLE "Inside Me"
    INDEX 01 84:46:68
  TRACK 24 AUDIO
    PERFORMER "Oryon"
    TITLE "Rocket Science"
    INDEX 01 90:13:25
  TRACK 25 AUDIO
    PERFORMER "Robbie Burian"
    TITLE "Poker"
    INDEX 01 93:34:51
  TRACK 26 AUDIO
    PERFORMER "David Forbes & William Daniel"
    TITLE "Illuminatus"
    INDEX 01 98:30:37
  TRACK 27 AUDIO
    PERFORMER "Mallorca Lee"
    TITLE "Krunch"
    INDEX 01 103:15:58
  TRACK 28 AUDIO
    PERFORMER "Ronald van Gelderen"
    TITLE "Backstabberz (Ummet Ozcan Remix)"
    INDEX 01 105:36:47
  TRACK 29 AUDIO
    PERFORMER "ID"
    TITLE "Bastillon"
    INDEX 01 109:53:54
  TRACK 30 AUDIO
    PERFORMER "Depeche Mode"
    TITLE "Peace (Sander van Doorn Remix)"
    INDEX 01 114:42:37